<svg width="35" height="36" viewBox="0 0 35 36" fill="none" xmlns="http://www.w3.org/2000/svg">
<path d="M4.92188 31.903H30.0781C30.2232 31.903 30.3623 31.8454 30.4648 31.7429C30.5674 31.6403 30.625 31.5012 30.625 31.3562V16.0437C30.625 15.8986 30.5674 15.7595 30.4648 15.657C30.3623 15.5544 30.2232 15.4968 30.0781 15.4968H4.92188C4.77683 15.4968 4.63774 15.5544 4.53518 15.657C4.43262 15.7595 4.375 15.8986 4.375 16.0437V31.3562C4.375 31.5012 4.43262 31.6403 4.53518 31.7429C4.63774 31.8454 4.77683 31.903 4.92188 31.903ZM5.46875 16.5905H29.5312V30.8093H5.46875V16.5905Z" fill="url(#paint0_linear)"/>
<path d="M33.3594 11.1218H32.8125V8.38742C32.8125 8.24238 32.7549 8.10328 32.6523 8.00072C32.5498 7.89816 32.4107 7.84055 32.2656 7.84055V6.19992C32.2656 6.05488 32.208 5.91578 32.1054 5.81322C32.0029 5.71066 31.8638 5.65305 31.7188 5.65305H29.5312C29.3862 5.65305 29.2471 5.71066 29.1446 5.81322C29.042 5.91578 28.9844 6.05488 28.9844 6.19992V7.84055C28.8393 7.84055 28.7002 7.89816 28.5977 8.00072C28.4951 8.10328 28.4375 8.24238 28.4375 8.38742V11.1218H27.3438V8.38742C27.3438 8.24238 27.2861 8.10328 27.1836 8.00072C27.081 7.89816 26.9419 7.84055 26.7969 7.84055H8.20312C8.05808 7.84055 7.91898 7.89816 7.81643 8.00072C7.71387 8.10328 7.65625 8.24238 7.65625 8.38742V11.1218H6.5625V8.38742C6.5625 8.24238 6.50488 8.10328 6.40232 8.00072C6.29977 7.89816 6.16067 7.84055 6.01562 7.84055V6.19992C6.01562 6.05488 5.95801 5.91578 5.85545 5.81322C5.75289 5.71066 5.61379 5.65305 5.46875 5.65305H3.28125C3.13621 5.65305 2.99711 5.71066 2.89455 5.81322C2.79199 5.91578 2.73438 6.05488 2.73438 6.19992V7.84055C2.58933 7.84055 2.45024 7.89816 2.34768 8.00072C2.24512 8.10328 2.1875 8.24238 2.1875 8.38742V11.1218H1.64062C1.49558 11.1218 1.35648 11.1794 1.25393 11.282C1.15137 11.3845 1.09375 11.5236 1.09375 11.6687V13.8562C1.09375 14.0012 1.15137 14.1403 1.25393 14.2429C1.35648 14.3454 1.49558 14.403 1.64062 14.403H2.1875V33.5437C2.1875 33.6887 2.24512 33.8278 2.34768 33.9304C2.45024 34.0329 2.58933 34.0905 2.73438 34.0905H32.2656C32.4107 34.0905 32.5498 34.0329 32.6523 33.9304C32.7549 33.8278 32.8125 33.6887 32.8125 33.5437V14.403H33.3594C33.5044 14.403 33.6435 14.3454 33.7461 14.2429C33.8486 14.1403 33.9062 14.0012 33.9062 13.8562V11.6687C33.9062 11.5236 33.8486 11.3845 33.7461 11.282C33.6435 11.1794 33.5044 11.1218 33.3594 11.1218ZM30.0781 6.7468H31.1719V7.84055H30.0781V6.7468ZM29.5312 8.9343H31.7188V11.1218H29.5312V8.9343ZM26.25 11.1218H24.6094V8.9343H26.25V11.1218ZM11.4844 11.1218V8.9343H13.6719V11.1218H11.4844ZM14.7656 8.9343H16.9531V11.1218H14.7656V8.9343ZM18.0469 8.9343H20.2344V11.1218H18.0469V8.9343ZM21.3281 8.9343H23.5156V11.1218H21.3281V8.9343ZM8.75 8.9343H10.3906V11.1218H8.75V8.9343ZM3.82812 6.7468H4.92188V7.84055H3.82812V6.7468ZM3.28125 8.9343H5.46875V11.1218H3.28125V8.9343ZM31.7188 32.9968H3.28125V14.403H31.7188V32.9968ZM32.8125 13.3093H2.1875V12.2155H32.8125V13.3093Z" fill="url(#paint1_linear)"/>
<path d="M3.82812 4.5593H4.92188V3.46555H6.01562V2.3718H4.92188V1.27805H3.82812V2.3718H2.73438V3.46555H3.82812V4.5593Z" fill="url(#paint2_linear)"/>
<path d="M28.9844 2.3718H32.2656V3.46555H28.9844V2.3718Z" fill="url(#paint3_linear)"/>
<path d="M21.8105 19.0668C21.7638 18.9795 21.6942 18.9066 21.6093 18.8557C21.5243 18.8048 21.4271 18.778 21.3281 18.778H17.5C17.4025 18.778 17.3068 18.8041 17.2228 18.8535C17.1387 18.9029 17.0694 18.9739 17.022 19.0591L14.2877 23.981C14.2414 24.0643 14.2176 24.1582 14.2188 24.2534C14.2199 24.3487 14.2459 24.442 14.2942 24.5241C14.3425 24.6062 14.4114 24.6742 14.4941 24.7215C14.5768 24.7688 14.6704 24.7937 14.7656 24.7937H16.7409L15.3409 28.9959C15.3007 29.1168 15.304 29.2479 15.3501 29.3667C15.3963 29.4855 15.4825 29.5844 15.5938 29.6463C15.7051 29.7083 15.8346 29.7295 15.9599 29.7062C16.0851 29.6829 16.1983 29.6166 16.2799 29.5187L21.7487 22.9562C21.8152 22.8763 21.8576 22.7791 21.8709 22.676C21.8842 22.5729 21.8678 22.4681 21.8236 22.374C21.7795 22.2799 21.7094 22.2003 21.6217 22.1445C21.5339 22.0888 21.4321 22.0592 21.3281 22.0593H20.1622L21.7831 19.6284C21.8381 19.5461 21.8697 19.4503 21.8745 19.3514C21.8793 19.2525 21.8572 19.1541 21.8105 19.0668ZM18.6856 22.3027C18.6307 22.385 18.5991 22.4808 18.5943 22.5796C18.5895 22.6785 18.6117 22.7769 18.6584 22.8642C18.7051 22.9515 18.7746 23.0245 18.8595 23.0753C18.9445 23.1262 19.0416 23.1531 19.1406 23.1531H20.1606L17.2949 26.5924L18.0184 24.4196C18.0458 24.3374 18.0533 24.25 18.0402 24.1643C18.0272 24.0787 17.9939 23.9974 17.9433 23.9272C17.8927 23.8569 17.8261 23.7996 17.749 23.7601C17.672 23.7206 17.5866 23.7 17.5 23.6999H15.6953L17.8227 19.8718H20.3071L18.6856 22.3027Z" fill="url(#paint4_linear)"/>
<defs>
<linearGradient id="paint0_linear" x1="17.5" y1="0.462654" x2="17.5" y2="35.1438" gradientUnits="userSpaceOnUse">
<stop stop-color="#FFF33B"/>
<stop offset="0.014" stop-color="#FEE72E"/>
<stop offset="0.042" stop-color="#FED51B"/>
<stop offset="0.07" stop-color="#FDCA10"/>
<stop offset="0.1" stop-color="#FDC70C"/>
<stop offset="0.4" stop-color="#F3903F"/>
<stop offset="0.8" stop-color="#ED683C"/>
<stop offset="1" stop-color="#E93E3A"/>
</linearGradient>
<linearGradient id="paint1_linear" x1="17.5" y1="0.462655" x2="17.5" y2="35.1438" gradientUnits="userSpaceOnUse">
<stop stop-color="#FFF33B"/>
<stop offset="0.014" stop-color="#FEE72E"/>
<stop offset="0.042" stop-color="#FED51B"/>
<stop offset="0.07" stop-color="#FDCA10"/>
<stop offset="0.1" stop-color="#FDC70C"/>
<stop offset="0.4" stop-color="#F3903F"/>
<stop offset="0.8" stop-color="#ED683C"/>
<stop offset="1" stop-color="#E93E3A"/>
</linearGradient>
<linearGradient id="paint2_linear" x1="28.9844" y1="2.9482" x2="28.9844" y2="211.035" gradientUnits="userSpaceOnUse">
<stop stop-color="#FFF33B"/>
<stop offset="0.014" stop-color="#FEE72E"/>
<stop offset="0.042" stop-color="#FED51B"/>
<stop offset="0.07" stop-color="#FDCA10"/>
<stop offset="0.1" stop-color="#FDC70C"/>
<stop offset="0.4" stop-color="#F3903F"/>
<stop offset="0.8" stop-color="#ED683C"/>
<stop offset="1" stop-color="#E93E3A"/>
</linearGradient>
<linearGradient id="paint3_linear" x1="212.734" y1="2.92851" x2="212.734" y2="72.2909" gradientUnits="userSpaceOnUse">
<stop stop-color="#FFF33B"/>
<stop offset="0.014" stop-color="#FEE72E"/>
<stop offset="0.042" stop-color="#FED51B"/>
<stop offset="0.07" stop-color="#FDCA10"/>
<stop offset="0.1" stop-color="#FDC70C"/>
<stop offset="0.4" stop-color="#F3903F"/>
<stop offset="0.8" stop-color="#ED683C"/>
<stop offset="1" stop-color="#E93E3A"/>
</linearGradient>
<linearGradient id="paint4_linear" x1="266.888" y1="24.3452" x2="266.888" y2="717.961" gradientUnits="userSpaceOnUse">
<stop stop-color="#FFF33B"/>
<stop offset="0.014" stop-color="#FEE72E"/>
<stop offset="0.042" stop-color="#FED51B"/>
<stop offset="0.07" stop-color="#FDCA10"/>
<stop offset="0.1" stop-color="#FDC70C"/>
<stop offset="0.4" stop-color="#F3903F"/>
<stop offset="0.8" stop-color="#ED683C"/>
<stop offset="1" stop-color="#E93E3A"/>
</linearGradient>
</defs>
</svg>
