<svg width="78" height="18" viewBox="0 0 78 18" fill="none" xmlns="http://www.w3.org/2000/svg">
<path d="M7.524 14.1429C6.264 14.1429 5.124 13.8669 4.104 13.3149C3.096 12.7509 2.304 11.9829 1.728 11.0109C1.152 10.0269 0.864 8.9229 0.864 7.6989C0.864 6.4749 1.152 5.3769 1.728 4.4049C2.304 3.4209 3.102 2.6529 4.122 2.1009C5.142 1.5369 6.282 1.2549 7.542 1.2549C8.526 1.2549 9.426 1.4229 10.242 1.7589C11.058 2.0829 11.754 2.5689 12.33 3.2169L11.16 4.3509C10.212 3.3549 9.03 2.8569 7.614 2.8569C6.678 2.8569 5.832 3.0669 5.076 3.4869C4.32 3.9069 3.726 4.4889 3.294 5.2329C2.874 5.9649 2.664 6.7869 2.664 7.6989C2.664 8.6109 2.874 9.4389 3.294 10.1829C3.726 10.9149 4.32 11.4909 5.076 11.9109C5.832 12.3309 6.678 12.5409 7.614 12.5409C9.018 12.5409 10.2 12.0369 11.16 11.0289L12.33 12.1629C11.754 12.8109 11.052 13.3029 10.224 13.6389C9.408 13.9749 8.508 14.1429 7.524 14.1429ZM19.7398 4.3689C20.9518 4.3689 21.9118 4.7229 22.6198 5.4309C23.3398 6.1269 23.6998 7.1529 23.6998 8.5089V13.9989H21.9718V8.7069C21.9718 7.7829 21.7498 7.0869 21.3058 6.6189C20.8618 6.1509 20.2258 5.9169 19.3978 5.9169C18.4618 5.9169 17.7238 6.1929 17.1838 6.7449C16.6438 7.2849 16.3738 8.0649 16.3738 9.0849V13.9989H14.6458V0.642901H16.3738V5.8089C16.7338 5.3529 17.2018 4.9989 17.7778 4.7469C18.3658 4.4949 19.0198 4.3689 19.7398 4.3689ZM30.3718 4.3689C31.6918 4.3689 32.6998 4.6929 33.3958 5.3409C34.1038 5.9889 34.4578 6.9549 34.4578 8.2389V13.9989H32.8198V12.7389C32.5318 13.1829 32.1178 13.5249 31.5778 13.7649C31.0498 13.9929 30.4198 14.1069 29.6878 14.1069C28.6198 14.1069 27.7618 13.8489 27.1138 13.3329C26.4778 12.8169 26.1598 12.1389 26.1598 11.2989C26.1598 10.4589 26.4658 9.7869 27.0778 9.2829C27.6898 8.7669 28.6618 8.5089 29.9938 8.5089H32.7298V8.1669C32.7298 7.4229 32.5138 6.8529 32.0818 6.4569C31.6498 6.0609 31.0138 5.8629 30.1738 5.8629C29.6098 5.8629 29.0578 5.9589 28.5178 6.1509C27.9778 6.3309 27.5218 6.5769 27.1498 6.8889L26.4298 5.5929C26.9218 5.1969 27.5098 4.8969 28.1938 4.6929C28.8778 4.4769 29.6038 4.3689 30.3718 4.3689ZM29.9758 12.7749C30.6358 12.7749 31.2058 12.6309 31.6858 12.3429C32.1658 12.0429 32.5138 11.6229 32.7298 11.0829V9.7509H30.0658C28.6018 9.7509 27.8698 10.2429 27.8698 11.2269C27.8698 11.7069 28.0558 12.0849 28.4278 12.3609C28.7998 12.6369 29.3158 12.7749 29.9758 12.7749ZM39.3116 6.0609C39.6116 5.5089 40.0556 5.0889 40.6436 4.8009C41.2316 4.5129 41.9456 4.3689 42.7856 4.3689V6.0429C42.6896 6.0309 42.5576 6.0249 42.3896 6.0249C41.4536 6.0249 40.7156 6.3069 40.1756 6.8709C39.6476 7.4229 39.3836 8.2149 39.3836 9.2469V13.9989H37.6556V4.4589H39.3116V6.0609ZM53.9535 4.4589V12.7029C53.9535 14.3709 53.5395 15.6009 52.7115 16.3929C51.8835 17.1969 50.6475 17.5989 49.0035 17.5989C48.1035 17.5989 47.2455 17.4729 46.4295 17.2209C45.6135 16.9809 44.9535 16.6329 44.4495 16.1769L45.2775 14.8449C45.7215 15.2289 46.2675 15.5289 46.9155 15.7449C47.5755 15.9729 48.2535 16.0869 48.9495 16.0869C50.0655 16.0869 50.8875 15.8229 51.4155 15.2949C51.9555 14.7669 52.2255 13.9629 52.2255 12.8829V12.1269C51.8175 12.6189 51.3135 12.9909 50.7135 13.2429C50.1255 13.4829 49.4835 13.6029 48.7875 13.6029C47.8755 13.6029 47.0475 13.4109 46.3035 13.0269C45.5715 12.6309 44.9955 12.0849 44.5755 11.3889C44.1555 10.6809 43.9455 9.8769 43.9455 8.9769C43.9455 8.0769 44.1555 7.2789 44.5755 6.5829C44.9955 5.8749 45.5715 5.3289 46.3035 4.9449C47.0475 4.5609 47.8755 4.3689 48.7875 4.3689C49.5075 4.3689 50.1735 4.5009 50.7855 4.7649C51.4095 5.0289 51.9195 5.4189 52.3155 5.9349V4.4589H53.9535ZM48.9855 12.0909C49.6095 12.0909 50.1675 11.9589 50.6595 11.6949C51.1635 11.4309 51.5535 11.0649 51.8295 10.5969C52.1175 10.1169 52.2615 9.5769 52.2615 8.9769C52.2615 8.0529 51.9555 7.3089 51.3435 6.7449C50.7315 6.1689 49.9455 5.8809 48.9855 5.8809C48.0135 5.8809 47.2215 6.1689 46.6095 6.7449C45.9975 7.3089 45.6915 8.0529 45.6915 8.9769C45.6915 9.5769 45.8295 10.1169 46.1055 10.5969C46.3935 11.0649 46.7835 11.4309 47.2755 11.6949C47.7795 11.9589 48.3495 12.0909 48.9855 12.0909Z" fill="#EF763D"/>
<path d="M65.8772 9.2829C65.8772 9.4149 65.8652 9.5889 65.8412 9.8049H58.1012C58.2092 10.6449 58.5752 11.3229 59.1992 11.8389C59.8352 12.3429 60.6212 12.5949 61.5572 12.5949C62.6972 12.5949 63.6152 12.2109 64.3112 11.4429L65.2652 12.5589C64.8332 13.0629 64.2932 13.4469 63.6452 13.7109C63.0092 13.9749 62.2952 14.1069 61.5032 14.1069C60.4952 14.1069 59.6012 13.9029 58.8212 13.4949C58.0412 13.0749 57.4352 12.4929 57.0032 11.7489C56.5832 11.0049 56.3732 10.1649 56.3732 9.2289C56.3732 8.3049 56.5772 7.4709 56.9852 6.7269C57.4052 5.9829 57.9752 5.4069 58.6952 4.9989C59.4272 4.5789 60.2492 4.3689 61.1612 4.3689C62.0732 4.3689 62.8832 4.5789 63.5912 4.9989C64.3112 5.4069 64.8692 5.9829 65.2652 6.7269C65.6732 7.4709 65.8772 8.3229 65.8772 9.2829ZM61.1612 5.8269C60.3332 5.8269 59.6372 6.0789 59.0732 6.5829C58.5212 7.0869 58.1972 7.7469 58.1012 8.5629H64.2212C64.1252 7.7589 63.7952 7.1049 63.2312 6.6009C62.6792 6.0849 61.9892 5.8269 61.1612 5.8269ZM77.2767 0.642901V13.9989H75.6207V12.4869C75.2367 13.0149 74.7507 13.4169 74.1627 13.6929C73.5747 13.9689 72.9267 14.1069 72.2187 14.1069C71.2947 14.1069 70.4667 13.9029 69.7347 13.4949C69.0027 13.0869 68.4267 12.5169 68.0067 11.7849C67.5987 11.0409 67.3947 10.1889 67.3947 9.2289C67.3947 8.2689 67.5987 7.4229 68.0067 6.6909C68.4267 5.9589 69.0027 5.3889 69.7347 4.9809C70.4667 4.5729 71.2947 4.3689 72.2187 4.3689C72.9027 4.3689 73.5327 4.5009 74.1087 4.7649C74.6847 5.0169 75.1647 5.3949 75.5487 5.8989V0.642901H77.2767ZM72.3627 12.5949C72.9627 12.5949 73.5087 12.4569 74.0007 12.1809C74.4927 11.8929 74.8767 11.4969 75.1527 10.9929C75.4287 10.4769 75.5667 9.8889 75.5667 9.2289C75.5667 8.5689 75.4287 7.9869 75.1527 7.4829C74.8767 6.9669 74.4927 6.5709 74.0007 6.2949C73.5087 6.0189 72.9627 5.8809 72.3627 5.8809C71.7507 5.8809 71.1987 6.0189 70.7067 6.2949C70.2267 6.5709 69.8427 6.9669 69.5547 7.4829C69.2787 7.9869 69.1407 8.5689 69.1407 9.2289C69.1407 9.8889 69.2787 10.4769 69.5547 10.9929C69.8427 11.4969 70.2267 11.8929 70.7067 12.1809C71.1987 12.4569 71.7507 12.5949 72.3627 12.5949Z" fill="white"/>
</svg>
