<svg width="81" height="87" viewBox="0 0 81 87" fill="none" xmlns="http://www.w3.org/2000/svg">
<path d="M9.9775 76.8355H61.6664L59.1978 68.8424C59.5639 69.1614 80.375 87 80.375 87V8.97187C80.1285 4.12162 75.9525 0 70.776 0L9.99562 0.010875C4.82275 0.010875 0.625 4.13975 0.625 8.99V67.86C0.625 72.9749 4.8155 76.8355 9.9775 76.8355ZM48.214 20.6009L48.0944 20.6444L48.1379 20.6009H48.214ZM20.5516 25.201C27.1962 20.3652 33.3551 20.5972 33.3551 20.5972L33.8517 21.0866C25.7209 23.026 22.0342 26.6583 22.0342 26.6583C22.4112 26.5785 38.8289 17.1064 58.7229 26.8975C58.7229 26.8975 55.029 23.5009 47.3984 21.3259L48.0726 20.6625C49.1275 20.6661 54.71 20.8619 60.684 25.23C60.684 25.23 67.3685 36.6488 67.3685 50.6775C67.1474 50.4092 63.2215 56.7168 53.1186 56.9342C53.1186 56.9342 51.4076 54.9985 50.1896 53.3092C56.0984 51.6128 58.3096 48.2197 58.3096 48.2197C46.8075 55.4625 36.7264 54.3315 24.666 49.4377C24.5536 49.4377 24.5029 49.387 24.4449 49.329V49.3073C24.3869 49.2529 24.3361 49.1985 24.2237 49.1985H24.0062C23.2667 48.7127 22.7737 48.4735 22.7737 48.4735C22.7737 48.4735 24.9814 51.8665 30.6545 53.563C29.1646 55.2631 27.6892 57.1953 27.6892 57.1953C17.59 56.956 13.907 50.6485 13.907 50.6485C13.907 36.598 20.5516 25.201 20.5516 25.201Z" fill="#5C6BC0"/>
<path d="M48.8665 46.295C51.4439 46.295 53.5427 44.12 53.5427 41.4375C53.5427 38.7731 51.4547 36.5981 48.8665 36.5981V36.609C46.3 36.609 44.1975 38.7768 44.1903 41.4593C44.1903 44.12 46.2891 46.295 48.8665 46.295Z" fill="#5C6BC0"/>
<path d="M32.1263 46.295C34.7036 46.295 36.8025 44.12 36.8025 41.4375C36.8025 38.7731 34.7181 36.5981 32.1408 36.5981L32.1263 36.609C29.5489 36.609 27.45 38.7768 27.45 41.4593C27.45 44.12 29.5489 46.295 32.1263 46.295Z" fill="#5C6BC0"/>
</svg>
