<svg width="26" height="26" viewBox="0 0 26 26" fill="none" xmlns="http://www.w3.org/2000/svg">
<path d="M0.812479 8.12496H25.1875C25.636 8.12496 25.9999 7.76093 25.9999 7.31248C25.9999 6.86396 25.6359 6.5 25.1875 6.5H0.812479C0.363961 6.5 0 6.86403 0 7.31248C0 7.76093 0.364028 8.12496 0.812479 8.12496Z" fill="#D8D5D5"/>
<path d="M25.1875 12.1875H0.812479C0.363961 12.1875 0 12.5515 0 13C0 13.4484 0.364028 13.8125 0.812479 13.8125H25.1875C25.636 13.8125 25.9999 13.4484 25.9999 13C25.9999 12.5515 25.636 12.1875 25.1875 12.1875Z" fill="#D8D5D5"/>
<path d="M25.1874 17.875H8.93745C8.48893 17.875 8.12497 18.239 8.12497 18.6875C8.12497 19.136 8.489 19.5 8.93745 19.5H25.1874C25.6359 19.5 25.9999 19.1359 25.9999 18.6875C26 18.239 25.6359 17.875 25.1874 17.875Z" fill="#D8D5D5"/>
</svg>
