<svg width="24" height="25" viewBox="0 0 24 25" fill="none" xmlns="http://www.w3.org/2000/svg">
<g id="24 / basic / search">
<path id="icon" fill-rule="evenodd" clip-rule="evenodd" d="M10 17.795C5.58172 17.795 2 14.2797 2 9.94329C2 5.60692 5.58172 2.0916 10 2.0916C14.4183 2.0916 18 5.60692 18 9.94329C18 11.7577 17.3729 13.4284 16.3199 14.758L21.7071 20.0454L20.2929 21.4334L14.9056 16.146C13.551 17.1795 11.8487 17.795 10 17.795ZM16 10.1287C16 13.4424 13.3137 16.1287 10 16.1287C6.6863 16.1287 4.00001 13.4424 4.00001 10.1287C4.00001 6.81497 6.6863 4.12867 10 4.12867C13.3137 4.12867 16 6.81497 16 10.1287Z" fill="white"/>
</g>
</svg>
