<svg width="23" height="23" viewBox="0 0 23 23" fill="none" xmlns="http://www.w3.org/2000/svg">
<path d="M16.2168 14.8921L15.543 16.1719L14.8691 14.8242H11.5H8.13086L7.45703 16.1719L6.7832 14.8921C5.24539 15.2044 4.08789 16.5634 4.08789 18.1934V23H6.7832L8.13086 20.2148H11.5H14.8691L16.2168 23H18.9121V18.1934C18.9121 16.5634 17.7546 15.2044 16.2168 14.8921Z" fill="#57D9AD"/>
<path d="M16.2168 14.8921L15.543 16.1719L14.8691 14.8242H11.5V20.2148H14.8691L16.2168 23H18.9121V18.1934C18.9121 16.5634 17.7546 15.2044 16.2168 14.8921Z" fill="#26BFA6"/>
<path d="M11.5 15.498H10.8262V18.8672L11.5 20.2148L12.1738 18.8672V15.498H11.5Z" fill="#26BFA6"/>
<path d="M12.1738 15.498H11.5V20.2148L12.1738 18.8672V15.498Z" fill="#19A690"/>
<path d="M8.13086 20.2148V14.8242H7.45703C7.22622 14.8242 7.00103 14.8479 6.7832 14.8921V18.8672L8.13086 20.2148Z" fill="#465A61"/>
<path d="M16.2168 18.8672V14.8921C15.999 14.8479 15.7738 14.8242 15.543 14.8242H14.8691V20.2148L16.2168 18.8672Z" fill="#3B4A51"/>
<path d="M11.5 0C8.15588 0 5.43555 2.72033 5.43555 6.06445H11.5H17.5645C17.5645 2.72033 14.8441 0 11.5 0Z" fill="#26BFA6"/>
<path d="M11.5 0V6.06445H17.5645C17.5645 2.72033 14.8441 0 11.5 0Z" fill="#19A690"/>
<path d="M11.5 5.39062H4.08789V10.7812H11.5H18.9121V5.39062H11.5Z" fill="#57D9AD"/>
<path d="M14.8691 18.8672L14.1384 20.2148L13.5215 18.8672H12.1738L11.5 20.2148L10.8262 18.8672H9.47852L8.84269 20.2148L8.13086 18.8672H6.7832V23H8.13086L8.89961 21.5625L9.47852 23H10.8262L11.5 21.5625L12.1738 23H13.5215L14.4231 21.5625L14.8691 23H16.2168V18.8672H14.8691Z" fill="#465A61"/>
<path d="M13.5215 23L14.4231 21.5625L14.8691 23H16.2168V18.8672H14.8691L14.1384 20.2148L13.5215 18.8672H12.1738L11.5 20.2148V21.5625L12.1738 23H13.5215Z" fill="#3B4A51"/>
<path d="M11.5 5.39062H18.9121V10.7812H11.5V5.39062Z" fill="#26BFA6"/>
<path d="M11.5 8.08594H6.7832V10.1074C6.7832 11.9858 7.88936 13.5942 9.47852 14.3529V14.8242C9.47852 15.9407 10.3836 16.8457 11.5 16.8457C12.6164 16.8457 13.5215 15.9407 13.5215 14.8242V14.3529C15.1106 13.5942 16.2168 11.9858 16.2168 10.1074V8.08594H11.5Z" fill="#FFCEBF"/>
<path d="M13.5215 14.8242V14.3529C15.1106 13.5942 16.2168 11.9858 16.2168 10.1074V8.08594H11.5V16.8457C12.6164 16.8457 13.5215 15.9407 13.5215 14.8242Z" fill="#FFBFAB"/>
<path d="M8.13086 18.8672H9.47852V23H8.13086V18.8672Z" fill="#596C76"/>
<path d="M13.5215 18.8672H14.8691V23H13.5215V18.8672Z" fill="#465A61"/>
<path d="M11.5 2.69531H10.1523V4.04297H11.5H12.8477V2.69531H11.5Z" fill="#FFDA2D"/>
<path d="M11.5 2.69531H12.8477V4.04297H11.5V2.69531Z" fill="#FDBF00"/>
<path d="M11.5 18.8672H10.8262V23H11.5H12.1738V18.8672H11.5Z" fill="#596C76"/>
<path d="M11.5 18.8672H12.1738V23H11.5V18.8672Z" fill="#465A61"/>
</svg>
