<svg width="87" height="51" viewBox="0 0 87 51" fill="none" xmlns="http://www.w3.org/2000/svg">
<path d="M74.8759 32.1882C77.7619 35.0058 80.8077 37.6566 83.3961 40.7584C84.5395 42.1368 85.6219 43.559 86.4501 45.1587C87.6236 47.4326 86.5608 49.9348 84.5219 50.0706L71.8474 50.0648C68.5784 50.336 65.9707 49.0201 63.778 46.785C62.0232 44.9976 60.3981 43.0953 58.7107 41.2476C58.019 40.4924 57.295 39.7818 56.43 39.2201C54.6999 38.0971 53.198 38.4408 52.2092 40.2454C51.2022 42.0809 50.9737 44.1131 50.8748 46.1587C50.739 49.1432 49.8369 49.9279 46.839 50.0645C40.4321 50.3666 34.3516 49.3974 28.7029 46.1653C23.7228 43.316 19.8612 39.2935 16.4998 34.7397C9.95557 25.8727 4.94372 16.1291 0.439432 6.1125C-0.574492 3.85577 0.167047 2.64439 2.65708 2.6014C6.79179 2.52103 10.926 2.52681 15.0656 2.59563C16.7462 2.62026 17.8586 3.58406 18.5076 5.17164C20.7446 10.6722 23.4819 15.9054 26.9177 20.7562C27.8327 22.0476 28.7657 23.3392 30.0942 24.2481C31.564 25.2545 32.6831 24.921 33.3745 23.2836C33.8133 22.2454 34.0055 21.1271 34.1044 20.0153C34.432 16.1899 34.4751 12.3709 33.9006 8.55886C33.5479 6.17979 32.2079 4.63962 29.8339 4.18949C28.6225 3.95993 28.8028 3.50912 29.3894 2.81771C30.408 1.6252 31.3662 0.882812 33.2763 0.882812H47.6004C49.8554 1.32784 50.3562 2.34091 50.6649 4.60988L50.6772 20.5209C50.6525 21.3992 51.1159 24.0059 52.6981 24.5873C53.9643 25.0012 54.799 23.9881 55.5589 23.1852C58.9884 19.5453 61.4361 15.2436 63.6228 10.7893C64.5933 8.83057 65.4277 6.7966 66.2364 4.76417C66.8356 3.25611 67.7757 2.51406 69.4744 2.54686L83.2605 2.55909C83.6694 2.55909 84.083 2.56504 84.4789 2.63284C86.8019 3.02876 87.4386 4.02807 86.721 6.29652C85.5905 9.85554 83.3909 12.8215 81.2402 15.8011C78.9411 18.9822 76.4822 22.0546 74.2023 25.2545C72.1076 28.1772 72.2739 29.6501 74.8759 32.1882Z" fill="#436EAB"/>
</svg>
